<svg width="25" height="25" viewBox="0 0 25 25" fill="none" xmlns="http://www.w3.org/2000/svg">
<path d="M12.5 19.3748L10.4375 21.4373C9.52574 22.3488 8.28927 22.8609 7.00001 22.8609C5.71075 22.8609 4.47427 22.3488 3.56251 21.4373C2.65098 20.5255 2.13892 19.289 2.13892 17.9998C2.13892 16.7105 2.65098 15.474 3.56251 14.5623L7.68751 10.4373C8.59927 9.52574 9.83575 9.01367 11.125 9.01367C12.4143 9.01367 13.6507 9.52574 14.5625 10.4373" stroke="black" stroke-width="3" stroke-linecap="round"/>
<path d="M12.5 5.62477L14.5625 3.56227C15.4743 2.65074 16.7107 2.13867 18 2.13867C19.2893 2.13867 20.5257 2.65074 21.4375 3.56227C22.349 4.47403 22.8611 5.7105 22.8611 6.99977C22.8611 8.28903 22.349 9.5255 21.4375 10.4373L17.3125 14.5623C16.4007 15.4738 15.1643 15.9859 13.875 15.9859C12.5857 15.9859 11.3493 15.4738 10.4375 14.5623" stroke="black" stroke-width="3" stroke-linecap="round"/>
</svg>
