<svg width="26" height="27" viewBox="0 0 26 27" fill="none" xmlns="http://www.w3.org/2000/svg">
<g clip-path="url(#clip0_101_131)">
<path fill-rule="evenodd" clip-rule="evenodd" d="M11.375 2.6665C9.90667 2.66663 8.45963 3.0179 7.15464 3.69101C5.84965 4.36411 4.72455 5.33954 3.8732 6.5359C3.02186 7.73227 2.46896 9.11488 2.26063 10.5684C2.0523 12.0219 2.19459 13.5041 2.67562 14.8915C3.15665 16.2788 3.96248 17.531 5.02587 18.5435C6.08926 19.5561 7.37938 20.2997 8.78859 20.7122C10.1978 21.1248 11.6852 21.1944 13.1268 20.9152C14.5684 20.6359 15.9223 20.016 17.0755 19.1072L21.0319 23.0635C21.2362 23.2608 21.5098 23.37 21.7939 23.3676C22.0779 23.3651 22.3496 23.2512 22.5505 23.0503C22.7514 22.8494 22.8653 22.5777 22.8678 22.2937C22.8702 22.0096 22.761 21.736 22.5637 21.5317L18.6074 17.5753C19.6777 16.2175 20.3441 14.5858 20.5304 12.8669C20.7167 11.148 20.4152 9.41136 19.6606 7.85577C18.906 6.30018 17.7287 4.98847 16.2634 4.07075C14.7981 3.15304 13.104 2.66639 11.375 2.6665ZM4.33336 11.8748C4.33336 10.0073 5.07525 8.2162 6.39582 6.89563C7.71639 5.57506 9.50746 4.83317 11.375 4.83317C13.2426 4.83317 15.0337 5.57506 16.3542 6.89563C17.6748 8.2162 18.4167 10.0073 18.4167 11.8748C18.4167 13.7424 17.6748 15.5335 16.3542 16.854C15.0337 18.1746 13.2426 18.9165 11.375 18.9165C9.50746 18.9165 7.71639 18.1746 6.39582 16.854C5.07525 15.5335 4.33336 13.7424 4.33336 11.8748Z" fill="#4F4F4F"/>
</g>
<defs>
<clipPath id="clip0_101_131">
<rect width="26" height="26" fill="white" transform="translate(0 0.5)"/>
</clipPath>
</defs>
</svg>
