<svg width="27" height="23" viewBox="0 0 27 23" fill="none" xmlns="http://www.w3.org/2000/svg">
<path d="M18.1973 8.57898L12.0098 4.45398C11.8545 4.35034 11.6739 4.29082 11.4874 4.28179C11.3009 4.27275 11.1154 4.31453 10.9508 4.40267C10.7861 4.49081 10.6485 4.622 10.5526 4.78224C10.4567 4.94248 10.4061 5.12576 10.4062 5.3125V13.5625C10.4061 13.7492 10.4567 13.9325 10.5526 14.0928C10.6485 14.253 10.7861 14.3842 10.9508 14.4723C11.1154 14.5605 11.3009 14.6022 11.4874 14.5932C11.6739 14.5842 11.8545 14.5247 12.0098 14.421L18.1973 10.296C18.3388 10.2019 18.4548 10.0742 18.535 9.92447C18.6153 9.7747 18.6573 9.60741 18.6573 9.4375C18.6573 9.26759 18.6153 9.1003 18.535 8.95053C18.4548 8.80075 18.3388 8.67312 18.1973 8.57898ZM12.4688 11.6354V7.24609L15.7662 9.4375L12.4688 11.6354ZM24.8438 0.15625H2.15625C1.60924 0.15625 1.08464 0.373548 0.697842 0.760342C0.311048 1.14714 0.09375 1.67174 0.09375 2.21875V16.6562C0.09375 17.2033 0.311048 17.7279 0.697842 18.1147C1.08464 18.5015 1.60924 18.7188 2.15625 18.7188H24.8438C25.3908 18.7188 25.9154 18.5015 26.3022 18.1147C26.689 17.7279 26.9062 17.2033 26.9062 16.6562V2.21875C26.9062 1.67174 26.689 1.14714 26.3022 0.760342C25.9154 0.373548 25.3908 0.15625 24.8438 0.15625ZM24.8438 16.6562H2.15625V2.21875H24.8438V16.6562ZM26.9062 21.8125C26.9062 22.086 26.7976 22.3483 26.6042 22.5417C26.4108 22.7351 26.1485 22.8438 25.875 22.8438H1.125C0.851496 22.8438 0.589193 22.7351 0.395796 22.5417C0.202399 22.3483 0.09375 22.086 0.09375 21.8125C0.09375 21.539 0.202399 21.2767 0.395796 21.0833C0.589193 20.8899 0.851496 20.7812 1.125 20.7812H25.875C26.1485 20.7812 26.4108 20.8899 26.6042 21.0833C26.7976 21.2767 26.9062 21.539 26.9062 21.8125Z" fill="black"/>
</svg>
